<?xml version="1.0" encoding="utf-8"?>
<!-- Generator: Adobe Illustrator 26.0.3, SVG Export Plug-In . SVG Version: 6.00 Build 0)  -->
<svg version="1.1" id="레이어_1" xmlns="http://www.w3.org/2000/svg" xmlns:xlink="http://www.w3.org/1999/xlink" x="0px"
	 y="0px" viewBox="0 0 120.5 31.9" style="enable-background:new 0 0 120.5 31.9;" xml:space="preserve">
<style type="text/css">
	.st0{fill:#202020;}
</style>
<g>
	<g>
		<path class="st0" d="M0,0v22.7h9.1v9.1h22.7V9.1h-9.1V0H0z M9.1,18.2H4.5V4.5h13.7v4.6H9.1V18.2z M18.2,13.6v4.6h-4.6v-4.6H18.2z
			 M27.3,13.6L27.3,13.6v13.7H13.6v-4.6h9.1v-9.1L27.3,13.6z"/>
	</g>
	<g>
		<g>
			<path class="st0" d="M72.9,21.4l-1.4,3.7h-5.7l9.1-21.5H80l9,21.5h-5.6L82,21.4H72.9z M77.4,9.7l-2.8,7.1h5.5L77.4,9.7z"/>
		</g>
		<g>
			<path class="st0" d="M55.5,25.1v-9.6c0.7-1.7,3.2-2.1,4.4-0.7l0,0c0.6,0.6,0.7,1.3,0.7,2.2c0,0.7,0,8.1,0,8.2h5.1v-8.7
				c0-4.3-2.7-7-6.4-7c-2.3,0-3.8,0.6-5.4,2C52,9,47.5,8.6,45.3,10.7V9.8h-5.1v15.3h5.1v-9.6c0.8-1.7,3.2-2.1,4.4-0.7
				c0.5,0.6,0.7,1.3,0.7,2.1c0,1.6,0,6.5,0,8.2L55.5,25.1z"/>
		</g>
		<g>
			<path class="st0" d="M94.8,31.7h-5.3l2.9-6.9L85.1,9.4h5.4l4.4,9.4l4-9.4h5.4L94.8,31.7z"/>
		</g>
		<g>
			<path class="st0" d="M120.5,25.1h-5.3V4h5.3V25.1z"/>
		</g>
		<g>
			<rect x="104.2" y="4" class="st0" width="5.3" height="5.3"/>
		</g>
	</g>
</g>
</svg>
