<svg width="324" height="49" viewBox="0 0 324 49" fill="none" xmlns="http://www.w3.org/2000/svg">
<path d="M172.825 48.9935H154.838C153.674 48.9186 152.923 48.5439 152.472 48.0568C151.759 47.3075 151.759 46.221 151.909 45.3592L156.866 26.8505C157.204 25.9139 157.767 25.1645 158.48 24.6025C159.119 24.1155 159.832 23.7783 160.583 23.7033H178.608C181.725 23.5535 182.513 26.326 181.725 28.9862L177.519 45.022C177.256 46.1086 176.768 47.0452 176.017 47.7571C175.228 48.5064 174.177 48.9935 172.825 48.9935ZM167.755 28.4991C167.53 28.4991 167.305 28.574 167.155 28.6864C166.892 28.8363 166.704 29.136 166.591 29.5482L162.949 43.0737C162.949 43.2236 163.024 43.3735 163.137 43.4859C163.287 43.6357 163.475 43.7481 163.738 43.7481H166.329C166.817 43.7481 167.117 43.6732 167.342 43.4859C167.53 43.2985 167.68 42.9613 167.793 42.4743L168.844 38.203L170.159 33.4822L171.473 29.0611C171.473 28.9112 171.473 28.7614 171.398 28.649C171.323 28.574 171.21 28.4991 170.985 28.4991H167.755Z" fill="#18238E"/>
<path d="M131.333 48.9941C130.582 48.8817 130.056 48.6195 129.755 48.2448C129.417 47.8701 129.305 47.3456 129.342 46.6712L134.074 28.8744H131.671L132.947 23.6665H135.463L137.04 17.7842L133.288 14H148.494L145.94 23.6665H153.112L151.723 28.8744H144.588L140.683 43.449C140.645 43.6364 140.683 43.8237 140.795 43.9736C140.908 44.1234 141.096 44.2358 141.396 44.2733H148.831L147.63 48.9941H139.218H133.736H131.333Z" fill="#18238E"/>
<path d="M112.931 33.4819H128.252L124.872 46.1082C124.647 46.895 124.234 47.6069 123.52 48.094C122.769 48.656 121.755 48.9932 120.403 48.9932H101.365C99.4122 48.8808 98.6236 47.6444 99.1869 45.9958L100.614 40.6006H111.053C110.678 41.9494 110.678 41.9119 110.302 43.3357L110.077 44.3098H113.757C114.207 44.3098 114.508 44.2349 114.733 44.1225C114.921 43.9726 115.034 43.7478 115.109 43.3731L116.723 37.4159H101.478L104.256 27.0001C104.519 26.2882 104.97 25.5763 105.608 24.9769C106.697 23.9653 107.598 23.6655 109.213 23.6655H130.955L129.228 30.3721H118.789L119.314 28.3864H114.343L114.132 29.0982C113.719 30.7468 113.381 31.9083 112.931 33.4819Z" fill="#18238E"/>
<path d="M78.4984 23.7032C85.8209 23.7032 93.1059 23.7032 100.428 23.7032L96.4855 38.2779H81.465L80.1131 43.1861C80.1131 43.3359 80.1507 43.4858 80.2258 43.5982C80.2633 43.7106 80.4135 43.7481 80.6013 43.7855L95.021 43.7481L93.6316 48.9934H72.7531C69.6363 49.1433 68.8477 46.3708 69.5988 43.6731L73.842 27.6747C74.1049 26.5882 74.5931 25.6141 75.3065 24.9397C76.0951 24.1529 77.1466 23.7032 78.4984 23.7032ZM82.7417 33.5571H87.2854L88.6373 28.499H85.2201C84.7319 28.499 84.4315 28.574 84.2062 28.7613C84.0184 28.9486 83.8682 29.2484 83.7556 29.7354L82.7417 33.5571Z" fill="#18238E"/>
<path d="M71.5137 18.9822L67.6835 33.3695C67.4582 34.4935 67.1202 35.2803 66.4068 35.8048C65.8435 36.217 65.0174 36.4792 63.8908 36.5916L67.1953 48.9932H55.1789L51.912 36.6666H49.2834L46.0164 48.9932H34L42.2988 17.7832L38.2085 14.0365H67.646C71.0631 13.8867 72.1146 16.397 71.5137 18.9822ZM50.7103 31.2339H56.2679C57.1691 27.8618 58.0328 24.4898 58.9341 21.1178C58.9341 20.9679 58.9341 20.8555 58.8589 20.7806C58.7838 20.5933 58.6336 20.5183 58.3708 20.5558H53.5666L53.3014 21.5299L50.7103 31.2339Z" fill="url(#paint0_linear_40001111_20)"/>
<path d="M302.066 23.7081C309.389 23.7081 316.674 23.7081 323.996 23.7081L320.053 38.28H305.033L303.681 43.1872C303.681 43.3371 303.719 43.4869 303.794 43.5993C303.831 43.7117 303.981 43.7491 304.169 43.7866L318.589 43.7491L317.199 48.9935H296.321C293.204 49.1433 292.416 46.3713 293.167 43.6742L297.41 27.6789C297.673 26.5925 298.161 25.6186 298.874 24.9443C299.663 24.1576 300.714 23.7081 302.066 23.7081ZM306.31 33.5601H310.853L312.205 28.503H308.788C308.3 28.503 307.999 28.5779 307.774 28.7652C307.586 28.9525 307.436 29.2522 307.323 29.7392L306.31 33.5601Z" fill="#18238E"/>
<path d="M276.754 48.9942L283.438 23.7088H293.915L287.231 48.9942H276.754ZM294.929 20.1127H284.452L285.053 17.7902L281.338 14.0067H296.543L294.929 20.1127Z" fill="#18238E"/>
<path d="M250.205 23.7077C256.326 23.7077 262.41 23.7077 268.493 23.7077H274.388C277.505 23.5579 278.294 26.3299 277.543 28.9896L272.173 48.9931H261.658L267.028 29.514C267.028 29.3642 266.991 29.2143 266.953 29.1019C266.878 28.9896 266.728 28.9521 266.54 28.9146H262.56L257.227 48.9931H246.863L252.571 27.4912L250.205 23.7077Z" fill="#18238E"/>
<path d="M227.113 23.7081C234.435 23.7081 241.72 23.7081 249.042 23.7081L245.1 38.28H230.079L228.727 43.1872C228.727 43.3371 228.765 43.4869 228.84 43.5993C228.877 43.7117 229.028 43.7491 229.215 43.7866L243.635 43.7491L242.246 48.9935H221.367C218.251 49.1433 217.462 46.3713 218.213 43.6742L222.456 27.6789C222.719 26.5925 223.207 25.6186 223.921 24.9443C224.709 24.1576 225.761 23.7081 227.113 23.7081ZM231.356 33.5601H235.9L237.251 28.503H233.834C233.346 28.503 233.046 28.5779 232.82 28.7652C232.633 28.9525 232.482 29.2522 232.37 29.7392L231.356 33.5601Z" fill="#18238E"/>
<path d="M207.474 48.9931H185.619C183.441 48.8433 182.54 47.1202 183.291 44.8726L190.501 17.7891L186.373 14.0057H215.81C219.378 13.8558 220.354 16.7028 219.566 19.3624L217.65 26.6671H205.634L207.099 21.1605C207.099 21.0107 207.099 20.8983 207.023 20.7859C206.948 20.6361 206.761 20.5611 206.535 20.5611H201.729L201.466 21.5351L195.908 42.5126H200.114L201.241 42.2504C201.466 42.0631 201.616 41.7634 201.729 41.239L203.719 33.8968H200.602L202.029 28.4652H217.162L212.769 45.0224C212.506 46.0713 211.943 47.0452 211.117 47.757C210.253 48.5062 209.051 48.9931 207.474 48.9931Z" fill="#18238E"/>
<rect x="0.111084" y="0.314819" width="33.3704" height="33.3704" rx="16.6852" fill="#18238E"/>
<path d="M20.9998 6L22.1784 9.06442C22.4604 9.79765 22.6014 10.1643 22.8207 10.4726C23.015 10.746 23.2538 10.9847 23.5271 11.1791C23.8355 11.3984 24.2021 11.5394 24.9353 11.8214L27.9998 13L24.9353 14.1786C24.2021 14.4606 23.8355 14.6016 23.5271 14.8209C23.2538 15.0153 23.015 15.254 22.8207 15.5274C22.6014 15.8357 22.4604 16.2024 22.1784 16.9356L20.9998 20L19.8211 16.9356C19.5391 16.2024 19.3981 15.8357 19.1788 15.5274C18.9845 15.254 18.7457 15.0153 18.4724 14.8209C18.164 14.6016 17.7974 14.4606 17.0642 14.1786L13.9998 13L17.0642 11.8214C17.7974 11.5394 18.164 11.3984 18.4724 11.1791C18.7457 10.9847 18.9845 10.746 19.1788 10.4726C19.3981 10.1643 19.5391 9.79765 19.8211 9.06442L20.9998 6Z" fill="white"/>
<path opacity="0.7" d="M11.4998 18L12.2842 19.5689C12.5497 20.0999 12.6824 20.3654 12.8598 20.5954C13.0171 20.7996 13.2002 20.9826 13.4043 21.14C13.6344 21.3173 13.8999 21.4501 14.4308 21.7155L15.9998 22.5L14.4308 23.2845C13.8999 23.5499 13.6344 23.6827 13.4043 23.86C13.2002 24.0174 13.0171 24.2004 12.8598 24.4046C12.6824 24.6346 12.5497 24.9001 12.2842 25.4311L11.4998 27L10.7153 25.4311C10.4498 24.9001 10.3171 24.6346 10.1397 24.4046C9.98236 24.2004 9.79935 24.0174 9.5952 23.86C9.36514 23.6827 9.09965 23.5499 8.56867 23.2845L6.99976 22.5L8.56867 21.7155C9.09965 21.4501 9.36514 21.3173 9.5952 21.14C9.79935 20.9826 9.98236 20.7996 10.1397 20.5954C10.3171 20.3654 10.4498 20.0999 10.7153 19.5689L11.4998 18Z" fill="white"/>
<defs>
<linearGradient id="paint0_linear_40001111_20" x1="41.5" y1="13.9999" x2="57.4999" y2="36.4998" gradientUnits="userSpaceOnUse">
<stop stop-color="#8E187E"/>
<stop offset="1" stop-color="#18238E"/>
</linearGradient>
</defs>
</svg>
